<svg width="136" height="136" viewBox="0 0 136 136" fill="none" xmlns="http://www.w3.org/2000/svg">
<circle cx="68.2608" cy="67.631" r="46.1221" fill="#FEEAF0"/>
<g clip-path="url(#clip0)">
<path d="M72.0889 56.1467C72.0889 58.1603 72.866 59.9901 74.1369 61.3568C77.9475 59.9045 82.0967 59.5854 86.0845 60.438C86.7561 59.4464 87.1856 58.311 87.3387 57.1232C87.4917 55.9354 87.3639 54.7283 86.9657 53.5988C86.5674 52.4694 85.9097 51.4491 85.0455 50.62C84.1813 49.7909 83.1346 49.1761 81.9896 48.825C80.8446 48.4739 79.6332 48.3964 78.4527 48.5985C77.2723 48.8007 76.1557 49.277 75.1928 49.989C74.2299 50.7011 73.4474 51.6292 72.9084 52.6986C72.3693 53.7681 72.0886 54.949 72.0889 56.1467Z" fill="#F80658"/>
<path d="M60.8342 86.7717H61.3969C60.8694 84.9033 60.6028 82.9709 60.6045 81.0295C60.6045 75.938 62.4114 71.2677 65.4165 67.631H51.0341C49.5112 67.631 48.0507 68.236 46.9738 69.3128C45.8969 70.3897 45.2919 71.8503 45.2919 73.3732V76.34C45.2919 83.3149 50.8274 86.7717 60.8342 86.7717Z" fill="#F80658"/>
<path d="M60.6045 44.6622C63.1427 44.6622 65.5769 45.6705 67.3717 47.4653C69.1665 49.26 70.1748 51.6943 70.1748 54.2325C70.1748 56.7707 69.1665 59.205 67.3717 60.9998C65.5769 62.7946 63.1427 63.8029 60.6045 63.8029C58.0662 63.8029 55.632 62.7946 53.8372 60.9998C52.0424 59.205 51.0341 56.7707 51.0341 54.2325C51.0341 51.6943 52.0424 49.26 53.8372 47.4653C55.632 45.6705 58.0662 44.6622 60.6045 44.6622Z" fill="#F80658"/>
<path d="M98.8859 81.0295C98.8859 85.5983 97.0709 89.9799 93.8403 93.2105C90.6097 96.4412 86.228 98.2561 81.6592 98.2561C77.0905 98.2561 72.7088 96.4412 69.4782 93.2105C66.2476 89.9799 64.4326 85.5983 64.4326 81.0295C64.4326 76.4607 66.2476 72.079 69.4782 68.8484C72.7088 65.6178 77.0905 63.8029 81.6592 63.8029C86.228 63.8029 90.6097 65.6178 93.8403 68.8484C97.0709 72.079 98.8859 76.4607 98.8859 81.0295ZM83.5733 73.3732C83.5733 72.8656 83.3716 72.3787 83.0127 72.0197C82.6537 71.6608 82.1669 71.4591 81.6592 71.4591C81.1516 71.4591 80.6647 71.6608 80.3058 72.0197C79.9468 72.3787 79.7452 72.8656 79.7452 73.3732V79.1154H74.003C73.4953 79.1154 73.0085 79.3171 72.6495 79.676C72.2906 80.035 72.0889 80.5218 72.0889 81.0295C72.0889 81.5371 72.2906 82.024 72.6495 82.3829C73.0085 82.7419 73.4953 82.9435 74.003 82.9435H79.7452V88.6858C79.7452 89.1934 79.9468 89.6803 80.3058 90.0392C80.6647 90.3982 81.1516 90.5998 81.6592 90.5998C82.1669 90.5998 82.6537 90.3982 83.0127 90.0392C83.3716 89.6803 83.5733 89.1934 83.5733 88.6858V82.9435H89.3155C89.8232 82.9435 90.31 82.7419 90.669 82.3829C91.0279 82.024 91.2296 81.5371 91.2296 81.0295C91.2296 80.5218 91.0279 80.035 90.669 79.676C90.31 79.3171 89.8232 79.1154 89.3155 79.1154H83.5733V73.3732Z" fill="#F80658"/>
</g>
<circle cx="67.8918" cy="68" r="65.3918" stroke="#FEEAF0" stroke-width="5"/>
<defs>
<clipPath id="clip0">
<rect width="61.2502" height="61.2502" fill="white" transform="translate(37.6357 37.0059)"/>
</clipPath>
</defs>
</svg>
