<svg width="1440" height="900" viewBox="0 0 1440 900" fill="none" xmlns="http://www.w3.org/2000/svg">
<g clip-path="url(#clip0)">
<rect width="1440" height="900" fill="white"/>
<path fill-rule="evenodd" clip-rule="evenodd" d="M57.5986 -309.692C148.493 -296.646 184.18 -194.952 241.001 -122.817C297.055 -51.655 396.856 7.95999 377.527 96.4623C358.146 185.207 242.29 197.714 161.803 239.823C74.9701 285.251 -5.15004 378.53 -97.1635 344.807C-193.154 309.628 -221.464 191.973 -242.017 91.826C-261.837 -4.75006 -265.27 -108.004 -206.309 -187.019C-145.27 -268.817 -43.4283 -324.192 57.5986 -309.692Z" fill="#FEEAF0"/>
<path fill-rule="evenodd" clip-rule="evenodd" d="M59.3495 -365.372C155.114 -350.519 192.714 -234.735 252.579 -152.606C311.638 -71.5838 416.786 -3.709 396.422 97.0555C376.002 198.096 253.937 212.336 169.138 260.279C77.6518 312.001 -6.76161 418.204 -103.706 379.809C-204.84 339.755 -234.667 205.8 -256.321 91.7767C-277.203 -18.1801 -280.82 -135.74 -218.7 -225.702C-154.39 -318.834 -47.0911 -381.882 59.3495 -365.372Z" stroke="#FEEAF0" stroke-width="5"/>
<path fill-rule="evenodd" clip-rule="evenodd" d="M1555.96 618.676C1607.36 682.728 1654.09 751.681 1648.87 833.644C1642.41 935.079 1614.06 1045.96 1525.55 1095.92C1432.79 1148.28 1316.64 1124.25 1222.58 1074.26C1133.83 1027.09 1043.5 944.288 1051.78 844.122C1059.29 753.277 1195.39 751.031 1255.01 682.08C1307.69 621.167 1287.02 497.562 1365.82 480.96C1446.38 463.986 1504.42 554.463 1555.96 618.676Z" fill="#FEEAF0"/>
<path fill-rule="evenodd" clip-rule="evenodd" d="M1568.56 598.835C1626.37 670.862 1679.18 748.199 1675.37 838.71C1670.66 950.723 1642.19 1072.67 1546.39 1125.85C1445.98 1181.58 1318.18 1152.3 1213.96 1094.82C1115.63 1040.59 1014.73 946.925 1021.47 836.357C1027.58 736.079 1176.63 736.773 1240.34 661.921C1296.62 595.795 1271.1 458.633 1357.04 442.114C1444.91 425.226 1510.6 526.628 1568.56 598.835Z" stroke="#FEEAF0" stroke-width="8"/>
</g>
<defs>
<clipPath id="clip0">
<rect width="1440" height="900" fill="white"/>
</clipPath>
</defs>
</svg>
