<svg width="530" height="513" viewBox="0 0 530 513" fill="none" xmlns="http://www.w3.org/2000/svg">
<path fill-rule="evenodd" clip-rule="evenodd" d="M645.959 231.676C697.365 295.728 744.093 364.681 738.871 446.644C732.408 548.079 704.065 658.962 615.551 708.923C522.786 761.283 406.644 737.251 312.581 687.259C223.829 640.089 133.495 557.288 141.778 457.122C149.291 366.277 285.387 364.031 345.012 295.08C397.686 234.167 377.019 110.562 455.818 93.9598C536.384 76.9857 594.424 167.463 645.959 231.676Z" fill="#FEEAF0"/>
<path fill-rule="evenodd" clip-rule="evenodd" d="M658.56 211.835C716.374 283.862 769.177 361.199 765.369 451.71C760.656 563.723 732.194 685.672 636.388 738.851C535.981 794.584 408.181 765.299 303.963 707.823C205.629 653.592 104.731 559.925 111.467 449.357C117.577 349.079 266.625 349.773 330.338 274.921C386.623 208.795 361.096 71.6326 447.037 55.1144C534.905 38.2258 600.603 139.628 658.56 211.835Z" stroke="#FEEAF0" stroke-width="8"/>
</svg>
