<svg width="136" height="136" viewBox="0 0 136 136" fill="none" xmlns="http://www.w3.org/2000/svg">
<circle cx="68.2608" cy="67.631" r="46.1221" fill="#FEEAF0"/>
<g clip-path="url(#clip0)">
<path d="M92.0649 91.4351C91.4533 92.0467 90.7209 92.3525 89.8679 92.3525C89.0149 92.3525 88.2826 92.0467 87.671 91.4351L78.1107 81.8748C74.248 84.7397 69.9346 86.1721 65.1706 86.1721C62.2414 86.1721 59.4409 85.6008 56.7692 84.458C54.0974 83.3153 51.7959 81.7783 49.8645 79.8469C47.9332 77.9155 46.3961 75.614 45.2534 72.9423C44.1107 70.2705 43.5393 67.4701 43.5393 64.5408C43.5393 61.6116 44.1107 58.8111 45.2534 56.1394C46.3961 53.4677 47.9332 51.1661 49.8645 49.2348C51.7959 47.3034 54.0974 45.7664 56.7692 44.6236C59.4409 43.4809 62.2414 42.9095 65.1706 42.9095C68.0998 42.9095 70.9003 43.4809 73.572 44.6236C76.2438 45.7664 78.5453 47.3034 80.4767 49.2348C82.408 51.1661 83.9451 53.4677 85.0878 56.1394C86.2305 58.8111 86.8019 61.6116 86.8019 64.5408C86.8019 69.3049 85.3695 73.6182 82.5046 77.481L92.0649 87.0412C92.6765 87.6528 92.9823 88.3851 92.9823 89.2382C92.9823 90.0912 92.6765 90.8235 92.0649 91.4351ZM65.1706 49.0899C62.3701 49.0899 59.7869 49.782 57.421 51.1661C55.0551 52.5503 53.18 54.4253 51.7959 56.7912C50.4117 59.1572 49.7197 61.7404 49.7197 64.5408C49.7197 68.4358 51.0233 71.8478 53.6307 74.7771C55.4333 73.7148 57.7348 72.9745 60.5353 72.556V71.0592C57.4451 69.1922 55.9 65.3295 55.9 59.471C55.9 57.089 56.7692 55.2783 58.5074 54.039C60.2456 52.7997 62.4747 52.1801 65.1947 52.1801C67.9147 52.1801 70.1358 52.7997 71.8579 54.039C73.5801 55.2783 74.4411 57.089 74.4411 59.471C74.4411 65.587 72.8961 69.498 69.8059 71.204V72.556C72.6063 72.9423 74.924 73.6826 76.7588 74.7771C79.3339 71.8478 80.6215 68.4358 80.6215 64.5408C80.6215 61.7404 79.9294 59.1572 78.5453 56.7912C77.1612 54.4253 75.2861 52.5503 72.9202 51.1661C70.5543 49.782 67.9711 49.0899 65.1706 49.0899Z" fill="#F80658"/>
</g>
<circle cx="67.8918" cy="68" r="65.3918" stroke="#FEEAF0" stroke-width="5"/>
<defs>
<clipPath id="clip0">
<rect width="49.4429" height="49.4429" fill="white" transform="translate(43.5393 42.9095)"/>
</clipPath>
</defs>
</svg>
