<svg width="55" height="60" viewBox="0 0 55 60" fill="none" xmlns="http://www.w3.org/2000/svg">
<path d="M48.9458 22.5869L48.9115 22.5509C48.9088 22.5489 48.9066 22.5462 48.9052 22.543L27.5009 0L6.09688 22.5425C6.09442 22.5451 6.09303 22.5486 6.09055 22.5503L6.05523 22.5863C2.78226 26.0527 0.703349 30.5718 0.148999 35.4255C-0.405351 40.2791 0.596668 45.1886 2.99576 49.3736C5.39486 53.5587 9.05334 56.7791 13.3897 58.5226C17.726 60.2661 22.4912 60.4332 26.9279 58.9967C27.3013 58.8765 27.7003 58.8765 28.0737 58.9967C32.5101 60.4326 37.275 60.2655 41.6111 58.5217C45.9471 56.7779 49.6052 53.5578 52.0042 49.373C54.4031 45.1883 55.4052 40.2791 54.8511 35.4258C54.297 30.5724 52.2184 26.0533 48.9458 22.5869ZM13.7079 37.4522C13.6037 37.5619 13.521 37.6923 13.4647 37.8355C13.4083 37.9787 13.3793 38.1324 13.3793 38.2876C13.4174 42.2662 14.485 46.1584 16.4673 49.5457C16.5123 49.6225 16.5331 49.7124 16.5268 49.8024C16.5204 49.8923 16.4871 49.9779 16.4317 50.0469C16.3764 50.1159 16.3017 50.1645 16.2185 50.186C16.1353 50.2075 16.0477 50.2009 15.9683 50.1668C14.4781 49.5066 13.1243 48.547 11.9826 47.3417C9.64301 44.8771 8.32772 41.5354 8.32559 38.0504C8.32346 34.5654 9.63469 31.2218 11.9713 28.7543L27.5009 12.4004L43.0297 28.7543C45.3668 31.2215 46.6784 34.5651 46.6762 38.0504C46.6743 41.5354 45.3587 44.8771 43.0189 47.3417C41.8772 48.547 40.5236 49.5066 39.0336 50.1668C38.954 50.2009 38.8664 50.2075 38.7832 50.186C38.7 50.1645 38.6254 50.1156 38.5699 50.0469C38.5146 49.9779 38.4812 49.8923 38.4748 49.8021C38.4684 49.7121 38.4892 49.6222 38.5342 49.5454C40.5169 46.1584 41.5851 42.2662 41.6238 38.2876C41.6238 38.1324 41.5945 37.9787 41.5379 37.8353C41.4812 37.6917 41.3983 37.5616 41.2938 37.4519L33.9486 29.2466C33.8754 29.1823 33.7833 29.1471 33.688 29.1471C33.5929 29.1471 33.5006 29.1823 33.4276 29.2466C33.3544 29.3106 33.3052 29.4 33.2881 29.4987C33.2709 29.5973 33.2872 29.6989 33.3342 29.7862C36.187 35.2232 33.7339 43.0326 29.643 47.3417L29.6214 47.3644C29.0568 47.9526 28.2945 48.2824 27.5004 48.2821C26.7061 48.2818 25.944 47.9514 25.3798 47.3629L25.36 47.3417C21.2676 43.0326 18.8157 35.224 21.6689 29.7874C21.7158 29.7001 21.7322 29.5985 21.7151 29.4998C21.6981 29.4012 21.6487 29.3118 21.5756 29.2478C21.5025 29.1834 21.4103 29.1482 21.3151 29.1482C21.2199 29.1482 21.1277 29.1834 21.0546 29.2478L13.7079 37.4522Z" fill="#F80658"/>
</svg>
