<svg width="158" height="37" viewBox="0 0 158 37" fill="none" xmlns="http://www.w3.org/2000/svg">
<path d="M44.7528 26.0357H41.3348V11.817H44.7528V26.0357ZM50.5633 21.2115V26.0357H47.1356V11.817H52.8094C53.8967 11.817 54.8569 12.0188 55.6903 12.4225C56.5301 12.8196 57.1779 13.3893 57.6336 14.1314C58.0959 14.8671 58.327 15.7037 58.327 16.6412C58.327 18.0279 57.8289 19.1379 56.8329 19.9713C55.8433 20.7981 54.4826 21.2115 52.7508 21.2115H50.5633ZM50.5633 18.565H52.8094C53.4735 18.565 53.978 18.399 54.3231 18.067C54.6747 17.735 54.8504 17.2662 54.8504 16.6607C54.8504 15.9967 54.6714 15.4661 54.3133 15.0689C53.9553 14.6718 53.467 14.47 52.8485 14.4635H50.5633V18.565ZM60.1629 26.0357V11.817H65.2704C67.0998 11.817 68.4898 12.1523 69.4403 12.8228C70.3973 13.4934 70.8758 14.4667 70.8758 15.7428C70.8758 16.4784 70.7066 17.1067 70.368 17.6275C70.0295 18.1484 69.5314 18.5325 68.8739 18.7799C69.6161 18.9752 70.1857 19.3398 70.5829 19.8736C70.98 20.4075 71.1786 21.0585 71.1786 21.8268C71.1786 23.22 70.7359 24.2682 69.8504 24.9713C68.9715 25.6679 67.6662 26.0227 65.9344 26.0357H60.1629ZM63.5907 19.9908V23.399H65.8368C66.4553 23.399 66.9305 23.259 67.2625 22.9791C67.5946 22.6926 67.7606 22.2922 67.7606 21.7779C67.7606 20.593 67.1714 19.9973 65.993 19.9908H63.5907ZM63.5907 17.7447H65.3778C66.1265 17.7382 66.6603 17.6015 66.9793 17.3346C67.2984 17.0676 67.4579 16.6738 67.4579 16.1529C67.4579 15.554 67.2853 15.1243 66.9403 14.8639C66.5952 14.5969 66.0386 14.4635 65.2704 14.4635H63.5907V17.7447ZM79.3524 21.1822H73.4832V18.6334H79.3524V21.1822ZM93.2391 14.4635H88.9715V26.0357H85.5438V14.4635H81.3543V11.817H93.2391V14.4635ZM101.598 23.3795H96.9012L96.0809 26.0357H92.4188L97.6336 11.817H100.856L106.11 26.0357H102.429L101.598 23.3795ZM97.7215 20.733H100.778L99.245 15.8014L97.7215 20.733ZM115.231 23.3795H110.534L109.714 26.0357H106.052L111.266 11.817H114.489L119.743 26.0357H116.061L115.231 23.3795ZM111.354 20.733H114.411L112.878 15.8014L111.354 20.733ZM126.071 21.0162H124.216V26.0357H120.788V11.817H126.384C128.07 11.817 129.388 12.1913 130.339 12.94C131.289 13.6887 131.764 14.7467 131.764 16.1139C131.764 17.1034 131.563 17.9238 131.159 18.5748C130.762 19.2258 130.137 19.7532 129.284 20.1568L132.253 25.8893V26.0357H128.581L126.071 21.0162ZM124.216 18.3697H126.384C127.035 18.3697 127.523 18.2004 127.848 17.8619C128.181 17.5169 128.347 17.0383 128.347 16.4264C128.347 15.8144 128.181 15.3359 127.848 14.9908C127.516 14.6393 127.028 14.4635 126.384 14.4635H124.216V18.3697ZM144.987 11.817V21.1236C144.987 22.1783 144.763 23.093 144.313 23.8678C143.864 24.636 143.22 25.2219 142.38 25.6256C141.54 26.0292 140.547 26.231 139.401 26.231C137.669 26.231 136.306 25.7818 135.309 24.8834C134.313 23.985 133.806 22.7545 133.786 21.192V11.817H137.233V21.2603C137.272 22.8163 137.995 23.5943 139.401 23.5943C140.111 23.5943 140.648 23.399 141.013 23.0084C141.377 22.6178 141.559 21.983 141.559 21.1041V11.817H144.987ZM156.091 20.3717H150.563V26.0357H147.136V11.817H156.647V14.4635H150.563V17.735H156.091V20.3717Z" fill="#F80658"/>
<path d="M29.4141 13.5737L29.3935 13.552C29.3919 13.5508 29.3906 13.5492 29.3897 13.5473L16.5268 0L3.66394 13.547C3.66246 13.5485 3.66163 13.5506 3.66013 13.5517L3.63891 13.5733C1.67201 15.6565 0.42268 18.3722 0.0895416 21.289C-0.243597 24.2058 0.35857 27.1562 1.80031 29.6712C3.24206 32.1862 5.44063 34.1216 8.04656 35.1693C10.6525 36.2171 13.5162 36.3175 16.1824 35.4543C16.4068 35.382 16.6466 35.382 16.871 35.4543C19.537 36.3172 22.4006 36.2168 25.0063 35.1688C27.6121 34.1209 29.8104 32.1857 31.2521 29.6709C32.6937 27.1561 33.296 24.2058 32.963 21.2892C32.6299 18.3726 31.3808 15.6568 29.4141 13.5737ZM8.23779 22.507C8.17518 22.573 8.12552 22.6513 8.09165 22.7374C8.05777 22.8235 8.04033 22.9158 8.04035 23.009C8.06324 25.4 8.70484 27.7391 9.89609 29.7746C9.92314 29.8208 9.93565 29.8748 9.93181 29.9289C9.92798 29.9829 9.908 30.0344 9.87471 30.0758C9.84144 30.1173 9.79658 30.1465 9.74656 30.1594C9.69653 30.1724 9.6439 30.1684 9.5962 30.1479C8.70065 29.7512 7.88708 29.1745 7.20101 28.4501C5.795 26.9691 5.00457 24.9608 5.00329 22.8665C5.00201 20.7722 5.79 18.7628 7.19421 17.28L16.5268 7.45207L25.8589 17.28C27.2633 18.7627 28.0516 20.772 28.0502 22.8665C28.0491 24.9608 27.2585 26.9691 25.8524 28.4501C25.1663 29.1745 24.3528 29.7512 23.4574 30.1479C23.4096 30.1684 23.3569 30.1724 23.3069 30.1594C23.2569 30.1465 23.2121 30.1171 23.1787 30.0758C23.1455 30.0344 23.1254 29.9829 23.1216 29.9287C23.1177 29.8747 23.1302 29.8206 23.1573 29.7744C24.3488 27.7391 24.9907 25.4 25.014 23.009C25.014 22.9158 24.9964 22.8235 24.9623 22.7372C24.9283 22.651 24.8784 22.5728 24.8157 22.5068L20.4015 17.5758C20.3575 17.5372 20.3022 17.516 20.2449 17.516C20.1878 17.516 20.1323 17.5372 20.0884 17.5758C20.0444 17.6143 20.0149 17.668 20.0046 17.7273C19.9943 17.7866 20.0041 17.8477 20.0323 17.9001C21.7467 21.1675 20.2725 25.8606 17.814 28.4501L17.8011 28.4638C17.4618 28.8173 17.0037 29.0155 16.5264 29.0153C16.0491 29.0151 15.5912 28.8166 15.2521 28.4629L15.2401 28.4501C12.7808 25.8606 11.3074 21.168 13.022 17.9008C13.0502 17.8484 13.06 17.7873 13.0498 17.728C13.0395 17.6687 13.0098 17.615 12.9659 17.5765C12.922 17.5379 12.8666 17.5167 12.8094 17.5167C12.7522 17.5167 12.6968 17.5379 12.6528 17.5765L8.23779 22.507Z" fill="#F80658"/>
</svg>
