<svg width="136" height="136" viewBox="0 0 136 136" fill="none" xmlns="http://www.w3.org/2000/svg">
<circle cx="68.2608" cy="67.631" r="46.1221" fill="#FEEAF0"/>
<path d="M74.3275 63.3263C76.5849 63.3263 78.417 65.1584 78.417 67.4158V75.0106H78.4077V77.3474H57.376V70.3369H57.3806V67.4158C57.3806 65.1584 59.2104 63.3263 61.4701 63.3263H74.3275Z" fill="#F80658"/>
<path d="M91.2603 67.4158C91.2603 66.3312 90.8295 65.291 90.0625 64.5241C89.2956 63.7571 88.2554 63.3263 87.1708 63.3263H79.2839C80.2023 64.4363 80.7538 65.8618 80.7538 67.4158V70.3369H80.7445V77.3474H89.5077C89.9725 77.3474 90.4183 77.1628 90.747 76.8341C91.0757 76.5054 91.2603 76.0596 91.2603 75.5948V67.4158Z" fill="#F80658"/>
<path d="M55.039 75.0106H55.0437V67.4158L55.0647 66.9017C55.1699 65.5463 55.6957 64.3124 56.5136 63.3263H48.6127L48.2762 63.3403C47.2533 63.4248 46.2996 63.8907 45.6044 64.6457C44.9092 65.4007 44.5232 66.3895 44.5232 67.4158V75.5948C44.5232 76.5622 45.3084 77.3474 46.2758 77.3474H55.039V75.0106Z" fill="#F80658"/>
<path d="M67.8918 46.9683C69.7511 46.9683 71.5343 47.7069 72.849 49.0217C74.1637 50.3364 74.9024 52.1196 74.9024 53.9789C74.9024 55.8382 74.1637 57.6214 72.849 58.9361C71.5343 60.2508 69.7511 60.9895 67.8918 60.9895C66.0325 60.9895 64.2493 60.2508 62.9346 58.9361C61.6198 57.6214 60.8812 55.8382 60.8812 53.9789C60.8812 52.1196 61.6198 50.3364 62.9346 49.0217C64.2493 47.7069 66.0325 46.9683 67.8918 46.9683Z" fill="#F80658"/>
<path d="M83.0813 49.3052C84.6307 49.3052 86.1167 49.9207 87.2123 51.0163C88.3079 52.1119 88.9234 53.5979 88.9234 55.1473C88.9234 56.6967 88.3079 58.1827 87.2123 59.2783C86.1167 60.3739 84.6307 60.9895 83.0813 60.9895C81.5318 60.9895 80.0459 60.3739 78.9503 59.2783C77.8546 58.1827 77.2391 56.6967 77.2391 55.1473C77.2391 53.5979 77.8546 52.1119 78.9503 51.0163C80.0459 49.9207 81.5318 49.3052 83.0813 49.3052Z" fill="#F80658"/>
<path d="M52.7022 49.3052C54.2517 49.3052 55.7376 49.9207 56.8333 51.0163C57.9289 52.1119 58.5444 53.5979 58.5444 55.1473C58.5444 56.6967 57.9289 58.1827 56.8333 59.2783C55.7376 60.3739 54.2517 60.9895 52.7022 60.9895C51.1528 60.9895 49.6668 60.3739 48.5712 59.2783C47.4756 58.1827 46.8601 56.6967 46.8601 55.1473C46.8601 53.5979 47.4756 52.1119 48.5712 51.0163C49.6668 49.9207 51.1528 49.3052 52.7022 49.3052Z" fill="#F80658"/>
<path d="M44.5232 81.4369C44.5232 80.9721 44.7078 80.5263 45.0365 80.1976C45.3652 79.8689 45.811 79.6843 46.2758 79.6843H89.5077C89.9725 79.6843 90.4183 79.8689 90.747 80.1976C91.0757 80.5263 91.2603 80.9721 91.2603 81.4369V82.6053C91.2603 84.9295 90.337 87.1584 88.6936 88.8019C87.0502 90.4453 84.8213 91.3685 82.4971 91.3685H53.2864C50.9623 91.3685 48.7333 90.4453 47.0899 88.8019C45.4465 87.1584 44.5232 84.9295 44.5232 82.6053V81.4369Z" fill="#F80658"/>
<circle cx="67.8918" cy="68" r="65.3918" stroke="#FEEAF0" stroke-width="5"/>
</svg>
