<svg width="136" height="136" viewBox="0 0 136 136" fill="none" xmlns="http://www.w3.org/2000/svg">
<circle cx="68.2608" cy="67.631" r="46.1221" fill="#FEEAF0"/>
<path d="M58.4598 62.4091C57.9399 62.4091 57.4414 62.6156 57.0738 62.9832C56.7062 63.3509 56.4996 63.8494 56.4996 64.3693C56.4996 64.8892 56.7062 65.3878 57.0738 65.7554C57.4414 66.123 57.9399 66.3295 58.4598 66.3295C58.9797 66.3295 59.4783 66.123 59.8459 65.7554C60.2135 65.3878 60.42 64.8892 60.42 64.3693C60.42 63.8494 60.2135 63.3509 59.8459 62.9832C59.4783 62.6156 58.9797 62.4091 58.4598 62.4091Z" fill="#F80658"/>
<path d="M56.4996 78.7388C56.4996 78.2189 56.7062 77.7204 57.0738 77.3528C57.4414 76.9851 57.9399 76.7786 58.4598 76.7786C58.9797 76.7786 59.4783 76.9851 59.8459 77.3528C60.2135 77.7204 60.42 78.2189 60.42 78.7388C60.42 79.2587 60.2135 79.7573 59.8459 80.1249C59.4783 80.4925 58.9797 80.699 58.4598 80.699C57.9399 80.699 57.4414 80.4925 57.0738 80.1249C56.7062 79.7573 56.4996 79.2587 56.4996 78.7388Z" fill="#F80658"/>
<path d="M44.7385 51.2961C44.7385 49.3899 45.4957 47.5618 46.8436 46.2139C48.1915 44.866 50.0196 44.1088 51.9259 44.1088H84.5957C86.5019 44.1088 88.3301 44.866 89.6779 46.2139C91.0258 47.5618 91.7831 49.3899 91.7831 51.2961V67.6886C89.3949 66.1582 86.6597 65.2539 83.8299 65.0593C83.9422 64.7625 83.9806 64.4428 83.9419 64.1279C83.9032 63.8129 83.7885 63.5121 83.6077 63.2513C83.4269 62.9905 83.1855 62.7776 82.9041 62.6309C82.6227 62.4842 82.3099 62.4081 81.9926 62.4091H68.9142C68.3943 62.4091 67.8957 62.6156 67.5281 62.9832C67.1605 63.3508 66.954 63.8494 66.954 64.3693C66.954 64.8892 67.1605 65.3878 67.5281 65.7554C67.8957 66.123 68.3943 66.3295 68.9142 66.3295H76.0806C73.7945 67.2857 71.7451 68.7303 70.0761 70.5622C68.4072 72.394 67.159 74.5687 66.4192 76.9338C65.6794 79.2989 65.4658 81.7971 65.7934 84.2535C66.121 86.7098 66.9819 89.0648 68.3157 91.1534H51.9259C50.0196 91.1534 48.1915 90.3961 46.8436 89.0482C45.4957 87.7003 44.7385 85.8722 44.7385 83.966V51.2961ZM52.5793 64.3693C52.5793 65.1415 52.7314 65.9062 53.0269 66.6197C53.3224 67.3332 53.7556 67.9814 54.3016 68.5275C54.8477 69.0736 55.496 69.5067 56.2094 69.8022C56.9229 70.0978 57.6876 70.2499 58.4598 70.2499C59.2321 70.2499 59.9968 70.0978 60.7102 69.8022C61.4237 69.5067 62.072 69.0736 62.618 68.5275C63.1641 67.9814 63.5972 67.3332 63.8928 66.6197C64.1883 65.9062 64.3404 65.1415 64.3404 64.3693C64.3404 62.8097 63.7208 61.3139 62.618 60.2111C61.5152 59.1083 60.0194 58.4887 58.4598 58.4887C56.9002 58.4887 55.4045 59.1083 54.3016 60.2111C53.1988 61.3139 52.5793 62.8097 52.5793 64.3693ZM58.4598 72.8582C56.9002 72.8582 55.4045 73.4778 54.3016 74.5806C53.1988 75.6834 52.5793 77.1792 52.5793 78.7388C52.5793 80.2984 53.1988 81.7942 54.3016 82.897C55.4045 83.9998 56.9002 84.6194 58.4598 84.6194C60.0194 84.6194 61.5152 83.9998 62.618 82.897C63.7208 81.7942 64.3404 80.2984 64.3404 78.7388C64.3404 77.1792 63.7208 75.6834 62.618 74.5806C61.5152 73.4778 60.0194 72.8582 58.4598 72.8582ZM54.5525 55.8699H81.9952C82.5151 55.8699 83.0136 55.6634 83.3812 55.2958C83.7489 54.9282 83.9554 54.4296 83.9554 53.9097C83.9554 53.3898 83.7489 52.8913 83.3812 52.5237C83.0136 52.156 82.5151 51.9495 81.9952 51.9495H54.5525C54.0326 51.9495 53.5341 52.156 53.1664 52.5237C52.7988 52.8913 52.5923 53.3898 52.5923 53.9097C52.5923 54.4296 52.7988 54.9282 53.1664 55.2958C53.5341 55.6634 54.0326 55.8699 54.5525 55.8699Z" fill="#F80658"/>
<path d="M97.0103 82.0058C97.0103 78.1934 95.4958 74.5371 92.8 71.8413C90.1042 69.1455 86.4479 67.631 82.6355 67.631C78.8231 67.631 75.1668 69.1455 72.471 71.8413C69.7753 74.5371 68.2608 78.1934 68.2608 82.0058C68.2608 85.8182 69.7753 89.4745 72.471 92.1702C75.1668 94.866 78.8231 96.3805 82.6355 96.3805C86.4479 96.3805 90.1042 94.866 92.8 92.1702C95.4958 89.4745 97.0103 85.8182 97.0103 82.0058ZM83.9449 89.8544C83.9449 90.201 83.8072 90.5334 83.5622 90.7784C83.3171 91.0235 82.9847 91.1612 82.6381 91.1612C82.2915 91.1612 81.9592 91.0235 81.7141 90.7784C81.469 90.5334 81.3313 90.201 81.3313 89.8544V83.3126H74.7843C74.4377 83.3126 74.1053 83.1749 73.8603 82.9298C73.6152 82.6847 73.4775 82.3524 73.4775 82.0058C73.4775 81.6592 73.6152 81.3268 73.8603 81.0817C74.1053 80.8367 74.4377 80.699 74.7843 80.699H81.3287V74.165C81.3287 73.8184 81.4664 73.486 81.7115 73.241C81.9565 72.9959 82.2889 72.8582 82.6355 72.8582C82.9821 72.8582 83.3145 72.9959 83.5596 73.241C83.8046 73.486 83.9423 73.8184 83.9423 74.165V80.699H90.4841C90.8307 80.699 91.1631 80.8367 91.4082 81.0817C91.6532 81.3268 91.7909 81.6592 91.7909 82.0058C91.7909 82.3524 91.6532 82.6847 91.4082 82.9298C91.1631 83.1749 90.8307 83.3126 90.4841 83.3126H83.9449V89.8544Z" fill="#F80658"/>
<circle cx="67.8918" cy="68" r="65.3918" stroke="#FEEAF0" stroke-width="5"/>
</svg>
