<svg width="402" height="391" viewBox="0 0 402 391" fill="none" xmlns="http://www.w3.org/2000/svg">
<path fill-rule="evenodd" clip-rule="evenodd" d="M57.5986 -309.692C148.493 -296.646 184.18 -194.952 241.001 -122.817C297.055 -51.655 396.856 7.95999 377.527 96.4623C358.146 185.207 242.29 197.714 161.803 239.823C74.9701 285.251 -5.15004 378.53 -97.1635 344.807C-193.154 309.628 -221.464 191.973 -242.017 91.826C-261.837 -4.75006 -265.27 -108.004 -206.309 -187.019C-145.27 -268.817 -43.4283 -324.192 57.5986 -309.692Z" fill="#FEEAF0"/>
<path fill-rule="evenodd" clip-rule="evenodd" d="M59.3495 -365.372C155.114 -350.519 192.714 -234.735 252.579 -152.606C311.638 -71.5838 416.786 -3.709 396.422 97.0555C376.002 198.096 253.937 212.336 169.138 260.279C77.6518 312.001 -6.76161 418.204 -103.706 379.809C-204.84 339.755 -234.667 205.8 -256.321 91.7767C-277.203 -18.1801 -280.82 -135.74 -218.7 -225.702C-154.39 -318.834 -47.0911 -381.882 59.3495 -365.372Z" stroke="#FEEAF0" stroke-width="5"/>
</svg>
